<svg width="18px" height="18px" viewBox="0 0 18 18" version="1.1" xmlns="http://www.w3.org/2000/svg">
    <g id="rec_2" stroke="none" stroke-width="1" fill="none" fill-rule="evenodd">
        <g id="Artboard-Copy-4" transform="translate(-162.000000, -271.000000)">
            <g id="Group-2" transform="translate(162.000000, 271.000000)">
                <path d="M17.6441966,5.0297098 L12.8979446,0.262616662 C12.7397303,0.10369811 12.5252999,0.0144 12.301926,0.0144 L5.58963577,0.0144 C5.36572951,0.0144 5.15129908,0.10369811 4.99308476,0.262616662 L0.247116705,5.0297098 C0.0889023906,5.18862835 0,5.40401325 0,5.62891615 L0,12.3711195 C0,12.5957729 0.0889023906,12.8111221 0.247116705,12.9700407 L4.99333319,17.7373833 C5.15126359,17.8963019 5.36597794,17.9856 5.5898842,17.9856 L12.3022454,17.9856 C12.5256193,17.9856 12.7400142,17.8965871 12.898264,17.7376685 L17.6447644,12.9703259 C17.8026948,12.8114073 17.8918811,12.5960224 17.8918811,12.3711195 L17.8918811,5.62891615 C17.8913133,5.40401325 17.8024109,5.18862835 17.6441966,5.0297098 Z" id="Shape" fill="#ff3700" fill-rule="nonzero"></path>
                <path d="M8.4520643,12.3850469 L13.3419175,5.76043923 C12.983599,5.47174601 12.6693025,5.67549971 12.4962858,5.83324452 L12.4899726,5.83375011 L8.41281989,10.0970731 L6.87665727,8.23885281 C6.14381061,7.38777239 5.14751454,8.03695294 4.91477813,8.20851727 L8.4520643,12.3850469" id="Fill-11" fill="#FFFFFF"></path>
            </g>
        </g>
    </g>
</svg>
